PathFileType	4	(x/y/z)	TRC_MarkerData\Calibration\Standing_Cal_SL_Passive0001.trc
DataRate	CameraRate	NumFrames	NumMarkers	Units	OrigDataRate	OrigDataStartFrame	OrigNumFrames
240	240	6	50	mm	240	107	849
Frame#	Time	R_AC			L_AC			HEAD			STERN			C7			L_IC			R_IC			L_ASIS			R_ASIS			L_GT			R_GT			L_PSIS			R_PSIS			SACRAL			L_LAT_KNEE			L_MED_KNEE			R_LAT_KNEE			R_MED_KNEE			L_LAT_ANK			L_MED_ANK			R_LAT_ANK			R_MED_ANK			L_THIGH_PROX_POST			L_THIGH_PROX_ANT			L_THIGH_DIST_ANT			L_THIGH_DIST_POST			R_THIGH_PROX_POST			R_THIGH_PROX_ANT			R_THIGH_DIST_ANT			R_THIGH_DIST_POST			L_SHANK_PROX_POST			L_SHANK_PROX_ANT			L_SHANK_DIST_ANT			L_SHANK_DIST_POST			R_SHANK_PROX_POST			R_SHANK_PROX_ANT			R_SHANK_DIST_ANT			R_SHANK_DIST_POST			L_HEEL_LAT			L_HEEL_SUP			L_HEEL_MED			R_HEEL_LAT			R_HEEL_SUP			R_HEEL_MED			L_1ST_MET			L_5TH_MET			L_TOE			R_1ST_MET			R_5TH_MET			R_TOE			
		X1	Y1	Z1	X2	Y2	Z2	X3	Y3	Z3	X4	Y4	Z4	X5	Y5	Z5	X6	Y6	Z6	X7	Y7	Z7	X8	Y8	Z8	X9	Y9	Z9	X10	Y10	Z10	X11	Y11	Z11	X12	Y12	Z12	X13	Y13	Z13	X14	Y14	Z14	X15	Y15	Z15	X16	Y16	Z16	X17	Y17	Z17	X18	Y18	Z18	X19	Y19	Z19	X20	Y20	Z20	X21	Y21	Z21	X22	Y22	Z22	X23	Y23	Z23	X24	Y24	Z24	X25	Y25	Z25	X26	Y26	Z26	X27	Y27	Z27	X28	Y28	Z28	X29	Y29	Z29	X30	Y30	Z30	X31	Y31	Z31	X32	Y32	Z32	X33	Y33	Z33	X34	Y34	Z34	X35	Y35	Z35	X36	Y36	Z36	X37	Y37	Z37	X38	Y38	Z38	X39	Y39	Z39	X40	Y40	Z40	X41	Y41	Z41	X42	Y42	Z42	X43	Y43	Z43	X44	Y44	Z44	X45	Y45	Z45	X46	Y46	Z46	X47	Y47	Z47	X48	Y48	Z48	X49	Y49	Z49	X50	Y50	Z50	

107	0.44219	400.83	1555.8	458.66	417.44	1576.4	164.74	444.59	1817.1	327.09	502.68	1495.5	313.19	360.16	1575.4	313.52	470.72	1106.5	140.72	471.62	1117.5	462.49	529.55	1022.7	164.69	540.47	1026.2	436.81	445.79	936.49	105.77	456.34	952.64	494.18	350.66	1083.3	253.93	352.09	1089	346.92	336.33	1056.2	299.54	408.47	535.48	149.02	380.71	521.9	283.21	403.32	542.26	472.83	381.4	550.04	342.35	382.55	114.27	147.28	386.84	110.28	218.53	376.1	109.36	448.9	384.92	128.58	358.59	417.63	765.45	129.73	478.82	756.71	150.31	473.17	683.29	163.83	410.55	690.8	142.14	388.26	750.96	483.78	456.24	748.82	488.99	447.31	674.22	481.09	380.08	676.7	475.78	391.92	449.7	147.27	435.82	459.03	172.32	424.98	400.69	174.22	367.67	390.42	166.33	334.49	375.07	481.72	403.4	379.11	480.31	401.45	303.1	468.69	330.97	301.96	467.5	302.45	42.058	155.33	297.77	70.155	189.21	309.72	40.868	222.04	307.46	40.933	419.92	304.5	70.583	387.24	320.55	45.964	353.96	517.6	53.609	219.93	479.22	40.326	117.6	575.57	62.433	183.9	530.5	56.274	370.62	489.04	40.325	474.62	580.84	54.663	422.19
108	0.44636	400.79	1555.8	458.74	417.38	1576.5	164.82	444.54	1817.1	327.16	502.64	1495.5	313.26	360.16	1575.4	313.61	470.65	1106.5	140.74	471.56	1117.5	462.51	529.5	1022.7	164.7	540.43	1026.2	436.83	445.75	936.5	105.79	456.3	952.63	494.2	350.61	1083.3	253.95	352.03	1089	346.94	336.27	1056.2	299.56	408.46	535.48	149.03	380.69	521.9	283.21	403.31	542.25	472.84	381.38	550.03	342.36	382.55	114.27	147.29	386.84	110.29	218.53	376.1	109.36	448.9	384.92	128.58	358.59	417.6	765.45	129.74	478.8	756.72	150.31	473.15	683.3	163.84	410.52	690.81	142.15	388.24	750.96	483.79	456.22	748.82	489	447.29	674.22	481.1	380.06	676.69	475.79	391.91	449.7	147.27	435.81	459.03	172.33	424.98	400.69	174.22	367.66	390.42	166.33	334.48	375.06	481.73	403.4	379.11	480.32	401.44	303.09	468.7	330.96	301.95	467.51	302.45	42.059	155.33	297.77	70.154	189.21	309.72	40.868	222.04	307.46	40.93	419.92	304.5	70.579	387.23	320.55	45.96	353.96	517.6	53.609	219.93	479.22	40.327	117.6	575.57	62.435	183.9	530.5	56.278	370.62	489.04	40.325	474.62	580.84	54.67	422.19
109	0.45053	400.76	1555.8	458.82	417.29	1576.5	164.91	444.49	1817.1	327.23	502.6	1495.5	313.33	360.17	1575.4	313.71	470.58	1106.5	140.76	471.5	1117.5	462.54	529.45	1022.7	164.71	540.38	1026.2	436.85	445.71	936.5	105.8	456.26	952.63	494.21	350.55	1083.3	253.97	351.97	1089	346.95	336.22	1056.2	299.58	408.45	535.48	149.03	380.68	521.89	283.21	403.3	542.24	472.84	381.37	550.03	342.37	382.55	114.27	147.29	386.84	110.29	218.53	376.09	109.35	448.9	384.91	128.57	358.59	417.56	765.46	129.74	478.77	756.73	150.32	473.13	683.31	163.84	410.5	690.81	142.15	388.21	750.95	483.8	456.19	748.81	489.01	447.28	674.21	481.11	380.04	676.68	475.8	391.9	449.7	147.27	435.8	459.03	172.33	424.97	400.69	174.22	367.65	390.42	166.34	334.47	375.05	481.74	403.39	379.1	480.33	401.43	303.09	468.71	330.95	301.94	467.51	302.45	42.059	155.33	297.77	70.154	189.21	309.72	40.868	222.04	307.45	40.926	419.92	304.49	70.575	387.23	320.54	45.955	353.96	517.6	53.61	219.93	479.22	40.327	117.6	575.57	62.436	183.9	530.49	56.282	370.62	489.04	40.324	474.62	580.83	54.677	422.19
110	0.4547	400.72	1555.8	458.89	417.18	1576.5	165.01	444.44	1817.1	327.29	502.56	1495.5	313.39	360.18	1575.4	313.8	470.51	1106.5	140.78	471.44	1117.5	462.56	529.4	1022.8	164.73	540.34	1026.2	436.87	445.66	936.51	105.82	456.22	952.62	494.22	350.49	1083.3	253.99	351.92	1089	346.97	336.16	1056.2	299.6	408.44	535.48	149.04	380.67	521.89	283.21	403.29	542.23	472.85	381.36	550.02	342.38	382.55	114.27	147.29	386.84	110.29	218.53	376.09	109.35	448.91	384.9	128.57	358.59	417.53	765.47	129.75	478.74	756.74	150.33	473.11	683.33	163.84	410.47	690.82	142.16	388.18	750.94	483.81	456.17	748.81	489.02	447.26	674.2	481.12	380.02	676.67	475.81	391.9	449.71	147.27	435.79	459.03	172.33	424.96	400.69	174.22	367.64	390.42	166.34	334.46	375.05	481.74	403.38	379.1	480.34	401.43	303.08	468.72	330.94	301.93	467.52	302.45	42.06	155.33	297.77	70.154	189.21	309.72	40.867	222.04	307.45	40.921	419.92	304.49	70.57	387.23	320.54	45.951	353.96	517.6	53.61	219.93	479.21	40.327	117.6	575.57	62.437	183.9	530.49	56.286	370.62	489.03	40.323	474.63	580.83	54.684	422.19
111	0.45887	400.69	1555.8	458.97	417.05	1576.5	165.11	444.38	1817.1	327.36	502.52	1495.4	313.46	360.19	1575.4	313.9	470.44	1106.5	140.8	471.37	1117.5	462.58	529.35	1022.8	164.74	540.3	1026.2	436.89	445.61	936.51	105.83	456.18	952.61	494.23	350.43	1083.3	254.01	351.86	1089	346.99	336.11	1056.1	299.62	408.43	535.48	149.04	380.67	521.89	283.22	403.28	542.22	472.86	381.34	550.01	342.39	382.54	114.27	147.29	386.84	110.29	218.53	376.08	109.34	448.91	384.9	128.56	358.59	417.5	765.47	129.75	478.71	756.76	150.33	473.09	683.34	163.85	410.45	690.82	142.16	388.16	750.93	483.83	456.15	748.8	489.03	447.24	674.2	481.13	380	676.66	475.82	391.89	449.71	147.27	435.79	459.04	172.33	424.96	400.69	174.23	367.64	390.42	166.34	334.45	375.04	481.75	403.37	379.09	480.35	401.42	303.07	468.73	330.93	301.92	467.53	302.45	42.06	155.32	297.77	70.154	189.21	309.72	40.867	222.04	307.45	40.917	419.92	304.48	70.566	387.23	320.54	45.946	353.96	517.6	53.611	219.93	479.21	40.327	117.6	575.57	62.438	183.9	530.48	56.29	370.63	489.03	40.322	474.63	580.82	54.691	422.2
112	0.46305	400.66	1555.8	459.05	416.9	1576.6	165.21	444.33	1817.1	327.42	502.47	1495.4	313.53	360.21	1575.4	313.99	470.36	1106.5	140.82	471.31	1117.5	462.6	529.29	1022.8	164.75	540.25	1026.2	436.9	445.57	936.52	105.85	456.14	952.6	494.25	350.36	1083.2	254.03	351.8	1089	347	336.05	1056.1	299.64	408.42	535.48	149.03	380.66	521.89	283.22	403.27	542.21	472.87	381.33	550	342.4	382.54	114.27	147.29	386.83	110.29	218.53	376.08	109.34	448.91	384.89	128.56	358.59	417.47	765.48	129.76	478.68	756.77	150.33	473.07	683.35	163.85	410.42	690.83	142.16	388.13	750.92	483.84	456.12	748.8	489.04	447.22	674.19	481.14	379.98	676.65	475.83	391.88	449.71	147.28	435.78	459.04	172.34	424.95	400.69	174.23	367.63	390.42	166.34	334.44	375.03	481.76	403.36	379.08	480.36	401.41	303.06	468.73	330.92	301.91	467.53	302.45	42.061	155.32	297.77	70.154	189.21	309.72	40.867	222.04	307.45	40.912	419.92	304.48	70.562	387.23	320.53	45.941	353.96	517.6	53.612	219.93	479.21	40.327	117.6	575.57	62.439	183.9	530.48	56.295	370.63	489.03	40.321	474.63	580.82	54.699	422.2
